HIERARCHY
ROOT Hips
{
	OFFSET 0.00000 0.00000 0.00000
	CHANNELS 6 Xposition Yposition Zposition Zrotation Yrotation Xrotation 
	JOINT LHipJoint
	{
		OFFSET 0 0 0
		CHANNELS 3 Zrotation Yrotation Xrotation
		JOINT LeftUpLeg
		{
			OFFSET 1.37590 -1.78394 0.89329
			CHANNELS 3 Zrotation Yrotation Xrotation
			JOINT LeftLeg
			{
				OFFSET 2.47928 -6.81178 0.00000
				CHANNELS 3 Zrotation Yrotation Xrotation
				JOINT LeftFoot
				{
					OFFSET 2.63345 -7.23535 0.00000
					CHANNELS 3 Zrotation Yrotation Xrotation
					JOINT LeftToeBase
					{
						OFFSET 0.23938 -0.65768 2.27012
						CHANNELS 3 Zrotation Yrotation Xrotation
						End Site
						{
							OFFSET 0.00000 -0.00000 1.18363
						}
					}
				}
			}
		}
	}
	JOINT RHipJoint
	{
		OFFSET 0 0 0
		CHANNELS 3 Zrotation Yrotation Xrotation
		JOINT RightUpLeg
		{
			OFFSET -1.33617 -1.78394 0.89329
			CHANNELS 3 Zrotation Yrotation Xrotation
			JOINT RightLeg
			{
				OFFSET -2.56922 -7.05888 0.00000
				CHANNELS 3 Zrotation Yrotation Xrotation
				JOINT RightFoot
				{
					OFFSET -2.56568 -7.04915 0.00000
					CHANNELS 3 Zrotation Yrotation Xrotation
					JOINT RightToeBase
					{
						OFFSET -0.27533 -0.75646 2.18105
						CHANNELS 3 Zrotation Yrotation Xrotation
						End Site
						{
							OFFSET -0.00000 -0.00000 1.15233
						}
					}
				}
			}
		}
	}
	JOINT LowerBack
	{
		OFFSET 0 0 0
		CHANNELS 3 Zrotation Yrotation Xrotation
		JOINT Spine
		{
			OFFSET 0.06190 2.15152 -0.00935
			CHANNELS 3 Zrotation Yrotation Xrotation
			JOINT Spine1
			{
				OFFSET 0.06334 2.15332 0.00872
				CHANNELS 3 Zrotation Yrotation Xrotation
				JOINT Neck
				{
					OFFSET 0 0 0
					CHANNELS 3 Zrotation Yrotation Xrotation
					JOINT Neck1
					{
						OFFSET -0.04202 1.66908 0.23524
						CHANNELS 3 Zrotation Yrotation Xrotation
						JOINT Head
						{
							OFFSET 0.07510 1.69357 -0.24440
							CHANNELS 3 Zrotation Yrotation Xrotation
							End Site
							{
								OFFSET 0.02556 1.71719 -0.11000
							}
						}
					}
				}
				JOINT LeftShoulder
				{
					OFFSET 0 0 0
					CHANNELS 3 Zrotation Yrotation Xrotation
					JOINT LeftArm
					{
						OFFSET 3.67168 1.26306 -0.41342
						CHANNELS 3 Zrotation Yrotation Xrotation
						JOINT LeftForeArm
						{
							OFFSET 4.68510 -0.00000 -0.00000
							CHANNELS 3 Zrotation Yrotation Xrotation
							JOINT LeftHand
							{
								OFFSET 3.39626 -0.00000 -0.00000
								CHANNELS 3 Zrotation Yrotation Xrotation
								JOINT LeftFingerBase
								{
									OFFSET 0 0 0
									CHANNELS 3 Zrotation Yrotation Xrotation
									JOINT LeftHandIndex1
									{
										OFFSET 0.48608 -0.00000 -0.00000
										CHANNELS 3 Zrotation Yrotation Xrotation
										End Site
										{
											OFFSET 0.39189 -0.00000 -0.00000
										}
									}
								}
								JOINT LThumb
								{
									OFFSET 0 0 0
									CHANNELS 3 Zrotation Yrotation Xrotation
									End Site
									{
										OFFSET 0.39787 -0.00000 0.39787
									}
								}
							}
						}
					}
				}
				JOINT RightShoulder
				{
					OFFSET 0 0 0
					CHANNELS 3 Zrotation Yrotation Xrotation
					JOINT RightArm
					{
						OFFSET -3.04136 1.42992 -0.76390
						CHANNELS 3 Zrotation Yrotation Xrotation
						JOINT RightForeArm
						{
							OFFSET -5.55576 -0.00000 -0.00000
							CHANNELS 3 Zrotation Yrotation Xrotation
							JOINT RightHand
							{
								OFFSET -3.32774 -0.00000 -0.00000
								CHANNELS 3 Zrotation Yrotation Xrotation
								JOINT RightFingerBase
								{
									OFFSET 0 0 0
									CHANNELS 3 Zrotation Yrotation Xrotation
									JOINT RightHandIndex1
									{
										OFFSET -0.50763 -0.00000 -0.00000
										CHANNELS 3 Zrotation Yrotation Xrotation
										End Site
										{
											OFFSET -0.40926 -0.00000 -0.00000
										}
									}
								}
								JOINT RThumb
								{
									OFFSET 0 0 0
									CHANNELS 3 Zrotation Yrotation Xrotation
									End Site
									{
										OFFSET -0.41551 -0.00000 0.41551
									}
								}
							}
						}
					}
				}
			}
		}
	}
}
MOTION
Frames: 7
Frame Time: 0.0645161
0.00 0.00 0.00 0 0 0 0 0 0 -21 0 0 0 0 0 0 0 0 0 0 0 0 0 0 21 0 0 0 0 0 0 0 0 0 0 0 0 0 0 0 0 0 0 0 0 0 0 -16 0 0 21 0 0 11 0 0 0 -8 0 0 0 0 0 0 0 0 0 0 0 0 0 0 0 0 0 0 0 0 8 0 0 0 0 0 0 0 0 0 0 0 0 0 0 0 0 0
0.00 0.00 0.00 -98.3376 -84.2905 110.0670 0.0000 0.0000 0.0000 -8.1058 -8.5204 -27.9420 5.9144 14.3448 44.6370 0.4561 2.2577 -13.7812 0.6705 -5.2363 -14.5838 0.0000 0.0000 0.0000 30.2438 4.7272 -10.0729 -0.8382 -5.8402 16.3214 -0.4738 -8.3640 -18.6500 -0.9279 -6.1367 17.1815 4.7437 0.5998 -2.2643 3.9531 0.5605 -0.5144 1.4194 0.2458 0.7509 -5.6921 0.0091 -19.1026 5.0375 0.6276 14.3950 2.6718 0.4745 7.5256 0.0000 0.0000 0.0000 -93.7640 0.9069 5.2301 14.8560 -23.9451 -3.1673 -0.0000 -0.0000 27.9086 11.8900 20.6171 4.2401 -7.1250 0.0000 -0.0000 -16.5338 50.2697 -2.2001 0.0000 0.0000 0.0000 81.8721 4.1221 27.3753 -15.7142 25.1316 -3.5237 0.0000 0.0000 13.6977 -16.7204 -25.4164 7.3467 7.1250 -0.0000 -0.0000 14.0284 -55.8149 -3.7758
0.00 0.00 0.00 -108.7070 -81.4959 121.7820 0.0000 0.0000 0.0000 -1.4055 -12.5725 -40.1621 1.7155 8.2465 23.4654 -0.0532 6.1863 -7.1973 0.2305 -3.0902 -8.5300 0.0000 0.0000 0.0000 30.0534 -1.2978 -3.7267 -2.6345 -10.0784 29.2311 -0.6936 -3.5706 -17.4274 -0.0274 -1.0694 2.9399 5.7448 4.1236 -0.9189 0.5509 5.4420 -0.7807 -2.5534 2.7006 0.1893 -7.6399 -1.3107 -18.5355 9.0524 -1.0863 7.9845 4.0253 -0.0999 5.5087 -0.0000 0.0000 0.0000 -91.3026 5.7641 17.6407 34.0674 -44.1346 -14.1600 -0.0000 -0.0000 10.6695 12.5030 25.6770 5.4883 -7.1250 0.0000 -0.0000 -18.4398 55.2335 -4.7514 -0.0000 0.0000 0.0000 79.6145 9.5596 52.4145 -49.9673 52.9823 -26.1480 0.0000 0.0000 18.8291 -17.1170 -19.3954 5.8394 7.1250 -0.0000 -0.0000 11.0789 -49.8771 -1.3467
0.00 0.00 0.00 -95.8189 -83.5640 107.3320 0.0000 0.0000 0.0000 -6.1894 -13.1947 -36.1601 2.3945 9.6436 27.8301 0.1335 1.7989 -7.8099 0.1288 -2.3138 -6.3736 0.0000 0.0000 0.0000 26.1776 -1.8533 -11.7871 -6.0615 -14.4877 45.2280 0.2642 -9.7659 -7.4560 -0.0025 0.3229 -0.8873 3.5262 3.6978 0.6375 -0.3362 4.9635 -0.5285 -2.3535 2.4637 -0.5705 -7.5017 -1.6980 -18.0379 9.8606 -1.7452 7.3095 4.1883 -0.3779 5.2867 -0.0000 -0.0000 0.0000 -90.3252 -1.5449 28.0465 37.1297 -46.2744 -16.3337 -0.0000 -0.0000 9.9612 13.4568 25.5991 5.9027 -7.1250 0.0000 -0.0000 -17.4401 55.3450 -4.5296 -0.0000 -0.0000 0.0000 79.1263 13.7712 53.2306 -58.8701 56.0013 -33.4027 0.0000 0.0000 19.4515 -19.2892 -18.0680 6.1950 7.1250 -0.0000 -0.0000 8.5779 -48.8559 -0.8213
0.00 0.00 0.00 -37.1358 -84.1874 46.1722 0.0000 0.0000 0.0000 -12.7034 -13.7631 -28.7537 3.2003 11.0124 32.3216 0.4518 -4.8716 -11.9674 0.0625 -1.6131 -4.4376 0.0000 0.0000 0.0000 20.9163 -1.5243 -28.7631 -10.5351 -17.7000 61.2624 0.8139 -15.7339 -5.8975 -0.0265 -1.0511 2.8894 0.0917 2.1788 5.3859 -1.6812 2.8433 0.6411 -1.9845 1.4017 -2.2665 -6.8560 -1.8974 -16.7195 11.1896 -2.3108 5.8660 4.4339 -0.6115 4.6993 0.0000 0.0000 0.0000 -91.8405 -19.6097 45.1340 41.4746 -48.9197 -19.5436 -0.0000 -0.0000 3.3766 12.9601 27.1071 5.9863 -7.1250 0.0000 -0.0000 -18.8345 56.6823 -5.5290 0.0000 0.0000 0.0000 77.5543 25.6774 54.4796 -69.3115 58.3193 -42.1843 0.0000 0.0000 20.0388 -22.3850 -17.9349 7.2281 7.1250 -0.0000 -0.0000 5.5624 -49.1915 -0.5766
0.00 0.00 0.00 -8.4313 -80.0399 17.8793 0.0000 0.0000 0.0000 -15.2915 -14.2492 -21.3754 4.2428 12.4766 37.4396 1.2746 -9.4845 -20.2879 0.0852 -1.8828 -5.1820 0.0000 0.0000 0.0000 16.8558 2.6274 -45.8959 -5.2792 -13.6915 42.0154 0.6723 -14.9787 -10.2167 -0.0881 -1.9146 5.2698 -3.0948 0.6513 12.7582 -3.2528 0.1488 2.5985 -1.6812 0.0391 -4.4245 -7.2815 -1.7311 -13.6058 14.1097 -2.0465 1.1041 5.4069 -0.5749 2.8019 0.0000 0.0000 0.0000 -104.6783 -47.6000 65.9337 55.4446 -54.9685 -30.5797 -0.0000 0.0000 -20.7011 9.6686 32.5042 5.2308 -7.1250 0.0000 -0.0000 -26.3404 60.8948 -10.6231 0.0000 0.0000 0.0000 77.1149 50.3275 56.0192 -75.3226 59.1701 -47.3244 0.0000 0.0000 20.1448 -27.5687 -20.9249 10.5622 7.1250 -0.0000 -0.0000 1.0883 -53.3088 -0.2224
0.00 0.00 0.00 -24.9299 -77.2013 38.7256 0.0000 0.0000 0.0000 -2.6031 -13.9884 -24.6038 7.8802 16.0304 52.1299 0.1199 -14.4172 -11.4541 1.2376 -7.0545 -19.8771 0.0000 0.0000 0.0000 24.5403 9.0187 -47.7628 -2.3493 -9.5586 27.5589 0.3384 -10.6486 -0.8229 -0.8023 -5.7167 15.9646 -3.5158 0.7467 17.2040 -3.3646 -0.0861 3.4480 -1.5621 -0.0921 -5.9503 -8.6530 -1.8580 -11.2460 16.7079 -1.7187 -4.5385 6.4803 -0.6453 0.8076 0.0000 -0.0000 0.0000 -122.9496 -64.7730 78.1346 66.3212 -57.7716 -39.6470 -0.0000 0.0000 -29.1021 13.6137 39.6338 8.7817 -7.1250 0.0000 -0.0000 -30.5524 68.0958 -17.5720 0.0000 -0.0000 0.0000 88.2460 74.8820 57.9809 -79.4186 59.5727 -50.8494 0.0000 0.0000 27.9641 -31.9766 -22.7941 13.5968 7.1250 -0.0000 -0.0000 -3.2729 -56.3042 0.9080
